# xmcd CD database file
#
# Track frame offsets:
#	150
#	14436
#	27756
#	41672
#	54816
#	69047
#	82022
#	95123
#	108343
#	120533
#	135814
#	148411
#	160395
#	172363
#	186849
#	199897
#
# Disc length: 2859 seconds
#
# Revision: 0
# Processed by: cddbd v1.5.1PL0 Copyright (c) Steve Scherf et al.
# Submitted via: CDex 1.51
#
DISCID=de0b2910
DTITLE=Bill Boyd's Cowboy Ramblers - Bill Boyd's Cowboy Ramblers AXM2-5503 Disc 01
DYEAR=1975
DGENRE=Country
TTITLE0=I'm Gonna Hop Off The Train
TTITLE1=The Rambler's Rag
TTITLE2=The Strawberry Roan
TTITLE3=The Windswept Desert
TTITLE4=Going Back To My Texas Home
TTITLE5=Mama Don't Like No Music
TTITLE6=Under The Double Eagle
TTITLE7=Barn Dance Rag
TTITLE8=I Can't Tame Wild Women
TTITLE9=Wah-Hoo
TTITLE10=River Blues
TTITLE11=Goofus
TTITLE12=Saturday Night Rag
TTITLE13=Fan It
TTITLE14='Way Out There
TTITLE15=Draggin' It Around
EXTD=YEAR: 1975
EXTT0=
EXTT1=
EXTT2=
EXTT3=
EXTT4=
EXTT5=
EXTT6=
EXTT7=
EXTT8=
EXTT9=
EXTT10=
EXTT11=
EXTT12=
EXTT13=
EXTT14=
EXTT15=
PLAYORDER=
